<svg width="97" height="88" viewBox="0 0 97 88" fill="none" xmlns="http://www.w3.org/2000/svg">
<g clip-path="url(#clip0)">
<path d="M6.78412 88.0001C4.16777 84.8902 0.097876 69.9239 0.000973893 69.0492C-0.0959282 68.1745 5.6213 55.2491 5.6213 55.2491C5.6213 55.2491 10.854 47.9603 11.0478 47.3772C11.2416 46.7941 13.5673 41.7405 13.5673 41.7405L16.4743 39.6996C16.4743 39.6996 19.8659 34.2573 20.738 33.8686C21.6102 33.4799 35.1765 29.301 35.1765 29.301L33.5495 25.157L35.661 24.2474L36.8238 25.157L37.5021 23.1784L40.6262 20.9548C40.6262 20.9548 54.7507 20.9431 56.398 21.8178C58.0454 22.6925 59.0144 24.8305 59.0144 24.8305V25.5944C59.0144 25.5944 61.4369 27.1629 61.8245 27.9404C62.2121 28.7179 60.7586 29.4953 60.7586 29.4953C60.7586 29.4953 73.4528 34.7433 75.197 34.8405L80.6236 40.963C80.6236 40.963 93.7053 60.5942 94.2868 61.6632C94.8682 62.7322 97 68.2717 97 68.2717C97 68.2717 96.5872 71.7227 94.5775 75.6577C92.5144 79.6957 88.8089 84.2633 85.2749 87.7085L72.2967 86.9796L71.7086 85.7648L72.7745 84.4043C72.7745 84.4043 71.9993 83.6268 71.9993 82.2662C71.9993 80.9056 75.7785 74.8802 75.7785 74.8802L79.8483 73.714L81.205 68.8548C81.205 68.8548 78.6855 63.3153 74.6156 62.7322C74.6156 62.7322 71.7086 72.9366 70.5457 81.5859C69.6736 84.9874 68.6726 87.6337 68.7249 88.0001L26.1365 86.9796C26.1365 86.9796 23.1606 62.1491 22.6761 61.3717C22.1916 60.5942 18.9938 65.7449 18.9938 65.7449L15.8929 68.1745C15.8929 68.1745 15.796 71.576 15.3115 72.0619C15.3115 72.0619 20.6411 86.5423 21.804 87.2226L6.78412 88.0001Z" fill="#293241"/>
<path d="M38.0835 10.836V12.4113C38.0835 12.4113 40.8937 14.8205 40.7968 16.4727C40.6999 18.1248 40.6999 21.0403 40.6999 21.0403C40.6999 21.0403 53.8785 21.3319 54.3631 21.5262L54.5569 19.7769C54.5569 19.7769 56.6887 13.7515 56.6887 13.6543C56.6887 13.5571 55.0414 14.9177 53.8785 15.0149L45.8357 15.1121L45.7388 14.6262C45.7388 14.6262 38.6649 12.8769 38.0835 10.836Z" fill="#584034"/>
<path d="M56.9794 12.974C56.9794 12.974 58.6268 13.0712 58.1422 15.1121C57.6577 17.1529 56.2042 19.5825 55.9135 19.6797C55.6228 19.7769 54.5569 19.9713 54.5569 19.9713L55.429 17.1529L56.4465 14.1888L56.9794 12.974Z" fill="#FAAA4D"/>
<path d="M38.8588 12.6825C38.8588 12.6825 37.6959 12.1966 37.7928 13.2656C37.8897 14.3346 38.7619 18.1248 38.5681 18.9994C38.5681 18.9994 39.4402 20.1656 40.5061 19.5825L40.6999 18.4163L40.8937 16.2783C40.8937 16.2783 39.5371 12.974 38.8588 12.6825Z" fill="#FAAA4D"/>
<path d="M52.2307 6.81689L44.1474 7.43661V13.0141L54.0961 14.2535L55.3397 10.5352L52.2307 6.81689Z" fill="#584034"/>
<path d="M56.9794 12.1966L57.0763 9.6698L56.5918 7.92049L56.4949 6.07399C56.4949 6.07399 54.0724 1.2148 49.0335 0.631695L48.9986 0H48.1129C48.1129 0 47.2408 0.0971839 47.5315 0.680287C47.5315 0.680287 38.4711 -1.02043 37.6959 10.6416L37.6242 10.7923C37.6242 10.7923 37.5021 11.4191 37.1562 11.8428C36.8102 12.2665 37.1145 12.5853 37.3083 12.6825C37.5021 12.7797 38.0835 12.1966 38.0835 12.1966L38.32 11.4949C39.008 12.1051 39.7675 12.6292 40.5817 13.0557C40.9334 13.2452 41.2965 13.4127 41.6689 13.5572C45.3512 16.0839 51.8436 15.5008 51.8436 15.5008C56.0434 15.2093 56.8883 13.9974 57.0473 13.4026C56.9949 13.3871 56.9397 13.3744 56.8825 13.3628L56.9794 12.1966ZM53.8786 12.8769C51.3591 13.7515 45.9326 12.6825 45.9326 12.6825C45.3512 9.96135 49.7118 8.50359 50.5839 8.50359C51.456 8.50359 53.491 9.76698 53.8786 10.4055C54.2662 11.044 53.8786 12.8769 53.8786 12.8769Z" fill="#293241"/>
<path d="M33.0079 53.3148C32.8179 53.5904 32.6358 53.7768 32.4618 53.8738C32.2869 53.9692 32.1056 53.9856 31.9179 53.923C31.7054 53.8521 31.5584 53.7091 31.4768 53.4938C31.3944 53.2769 31.3988 53.0327 31.49 52.7611C31.5521 52.5759 31.6432 52.4231 31.7634 52.3025C31.8839 52.1808 32.0204 52.1014 32.1729 52.0644C32.3258 52.0262 32.477 52.032 32.6265 52.0819L32.5065 52.4393C32.3435 52.3849 32.1982 52.3941 32.0708 52.4669C31.9421 52.5392 31.8461 52.6699 31.7827 52.8587C31.7239 53.034 31.7168 53.184 31.7615 53.3087C31.8053 53.4318 31.8958 53.5162 32.0329 53.5619C32.1428 53.5986 32.2516 53.5834 32.3593 53.5164C32.4661 53.4477 32.5885 53.3121 32.7265 53.1097C32.8649 52.9061 32.9935 52.7541 33.1124 52.6537C33.2304 52.5517 33.3502 52.4873 33.4718 52.4606C33.5938 52.4327 33.7233 52.4416 33.8604 52.4873C34.079 52.5602 34.2259 52.7039 34.3008 52.9184C34.3746 53.1324 34.3636 53.382 34.2679 53.6671C34.2058 53.8523 34.1126 54.0134 33.9883 54.1503C33.8628 54.2869 33.7236 54.3784 33.5707 54.4249C33.4181 54.4701 33.2634 54.4665 33.1066 54.4142L33.2265 54.0568C33.3896 54.1112 33.5387 54.0944 33.674 54.0064C33.8085 53.9167 33.9095 53.7713 33.977 53.5701C34.04 53.3825 34.05 53.2259 34.007 53.1003C33.9639 52.9748 33.8763 52.89 33.7442 52.8459C33.612 52.8018 33.4946 52.8141 33.3919 52.8828C33.2879 52.9511 33.1599 53.0951 33.0079 53.3148Z" fill="white"/>
<path d="M36.9204 47.2996L36.14 48.2535L36.922 48.8893L37.8285 47.7812L38.0664 47.9747L36.9225 49.373L34.716 47.579L35.8476 46.1958L36.087 46.3905L35.1929 47.4834L35.9021 48.0601L36.6825 47.1062L36.9204 47.2996Z" fill="white"/>
<path d="M42.8871 43.7917C43.0079 44.0693 43.0283 44.3259 42.9484 44.5616C42.869 44.7954 42.6952 44.9899 42.4269 45.145C42.136 45.313 41.8421 45.3438 41.5451 45.2372C41.2493 45.1299 40.9999 44.9018 40.797 44.5529L40.6596 44.3165C40.5267 44.088 40.4505 43.8636 40.4309 43.6434C40.4124 43.4225 40.4512 43.2225 40.5475 43.0436C40.6431 42.8635 40.7896 42.7165 40.9869 42.6024C41.2484 42.4513 41.5007 42.4033 41.7436 42.4584C41.9858 42.5124 42.1949 42.6608 42.3707 42.9036L42.0443 43.0922C41.9023 42.9126 41.7583 42.8063 41.6126 42.7732C41.468 42.7395 41.3111 42.7715 41.142 42.8692C40.9346 42.9891 40.8162 43.1598 40.7868 43.3813C40.7586 43.6021 40.8266 43.8538 40.9909 44.1363L41.1293 44.3744C41.2844 44.6412 41.4636 44.8211 41.6669 44.9142C41.8701 45.0073 42.0721 44.9958 42.2727 44.8799C42.4531 44.7756 42.5677 44.6553 42.6164 44.5189C42.6655 44.3807 42.647 44.2012 42.5607 43.9803L42.8871 43.7917Z" fill="white"/>
<path d="M48.6782 40.5972L48.995 42.5047C49.0377 42.7695 48.9901 42.9997 48.8523 43.1953C48.7158 43.3907 48.508 43.522 48.2287 43.5892L48.1311 43.6093C47.824 43.66 47.5656 43.6175 47.3556 43.4819C47.1457 43.3463 47.0153 43.1336 46.9645 42.8437L46.6471 40.9324L47.0133 40.872L47.3287 42.7717C47.3625 42.9747 47.4446 43.1235 47.5751 43.2181C47.7054 43.3114 47.874 43.3409 48.0809 43.3068C48.2903 43.2722 48.4409 43.19 48.5329 43.06C48.6261 42.9298 48.6558 42.7632 48.6221 42.5603L48.3063 40.6586L48.6782 40.5972Z" fill="white"/>
<path d="M54.363 43.0207L53.7079 42.8902L53.4819 44.0182L53.1122 43.9445L53.671 41.1562L54.5943 41.3402C54.9084 41.4027 55.1355 41.5223 55.2754 41.6989C55.4166 41.8757 55.4598 42.1007 55.405 42.3739C55.3702 42.5476 55.2926 42.6894 55.1723 42.7996C55.0532 42.9099 54.9036 42.9804 54.7236 43.0109L55.1414 44.3249L55.1368 44.3479L54.7422 44.2692L54.363 43.0207ZM53.7682 42.5896L54.3333 42.7021C54.5159 42.7385 54.6703 42.7201 54.7965 42.647C54.924 42.5742 55.0036 42.4586 55.0353 42.3003C55.0699 42.1279 55.0446 41.9855 54.9596 41.873C54.8759 41.7607 54.7371 41.6846 54.5432 41.6446L53.9801 41.5325L53.7682 42.5896Z" fill="white"/>
<path d="M58.942 46.4528L58.6237 46.2545L60.1341 43.845L60.4523 44.0432L58.942 46.4528Z" fill="white"/>
<path d="M66.1328 50.3483L65.5778 49.622L63.5589 51.1553L63.3324 50.8589L65.3513 49.3256L64.7975 48.6009L65.0432 48.4143L66.3786 50.1617L66.1328 50.3483Z" fill="white"/>
<path d="M67.1211 56.0888L68.7023 56.3932L68.8243 56.8011L66.8341 56.3697L65.8175 56.6719L65.71 56.3126L66.7267 56.0104L68.1551 54.5631L68.2782 54.9748L67.1211 56.0888Z" fill="white"/>
</g>
<defs>
<clipPath id="clip0">
<rect width="97" height="88" fill="white"/>
</clipPath>
</defs>
</svg>
