<svg width="430" height="433" viewBox="0 0 430 433" fill="none" xmlns="http://www.w3.org/2000/svg">
<g clip-path="url(#clip0)">
<path d="M326.039 214.6L325.679 214.547L325.518 214.874L319.978 226.113L319.881 226.308L319.959 226.511L320.426 226.334C319.959 226.511 319.959 226.511 319.959 226.512L319.959 226.512L319.96 226.514L319.962 226.52L319.971 226.542C319.978 226.56 319.989 226.587 320.002 226.621C320.03 226.689 320.071 226.787 320.125 226.909C320.232 227.154 320.391 227.498 320.601 227.9C321.019 228.701 321.645 229.745 322.468 230.69C323.288 231.633 324.33 232.508 325.59 232.922C326.842 233.333 328.261 233.272 329.803 232.451L331.049 232.4C331.045 232.423 331.04 232.448 331.035 232.473C330.947 232.918 330.825 233.555 330.684 234.321C330.402 235.854 330.048 237.909 329.757 239.995C329.467 242.077 329.238 244.206 329.212 245.88C329.199 246.714 329.235 247.461 329.349 248.042C329.406 248.331 329.487 248.603 329.604 248.83C329.721 249.055 329.897 249.278 330.165 249.398C330.753 249.662 331.642 249.821 332.588 249.923C333.551 250.027 334.632 250.078 335.641 250.099C336.651 250.12 337.596 250.112 338.288 250.1C338.634 250.093 338.917 250.085 339.115 250.079C339.143 250.078 339.169 250.077 339.193 250.077L345.322 256.655L345.673 257.032L346.039 256.67L356.616 246.224L356.795 246.047L356.76 245.798L355.347 235.848L355.337 235.78L355.31 235.718L347.572 218.023L347.461 217.769L347.187 217.728L326.039 214.6Z" fill="#C69C6D" stroke="white"/>
<path d="M414.261 73.9976C414.253 74.0605 414.245 74.1109 414.24 74.1464L383.984 140.395L383.976 140.413L383.969 140.432L368.7 182.544L366.898 187.151L345.745 232.05L345.737 232.065L345.731 232.081L339.625 247.775L325.016 237.964L327.56 230.221L345.676 184.446L345.676 184.445L347.559 179.661L358.014 179.229L358.309 179.216L358.441 178.952L412.073 71.5632C412.958 71.061 413.441 71.0581 413.683 71.149C413.921 71.2384 414.112 71.4922 414.226 71.9704C414.337 72.4347 414.343 72.9871 414.314 73.4442C414.301 73.6685 414.279 73.8615 414.261 73.9976Z" fill="black" stroke="white"/>
<path d="M297.644 400.059C297.593 400.038 297.547 400.019 297.509 400.003L270.758 349.791L356.969 326.409L367.21 336.779L368.074 337.654L368.066 336.424L367.665 278.391L367.664 278.224L367.563 278.091L352.814 258.774L347.931 237.065L347.929 237.056L347.927 237.046L347.444 237.175C347.927 237.046 347.927 237.046 347.927 237.046L347.926 237.045L347.925 237.04L347.92 237.02L347.9 236.944L347.82 236.644L347.515 235.496C347.251 234.502 346.871 233.071 346.408 231.323C345.481 227.828 344.221 223.063 342.885 217.99C340.212 207.84 337.24 196.458 336.035 191.509C334.841 186.601 335.798 184.374 337.212 183.486C337.948 183.025 338.888 182.862 339.918 182.936C340.947 183.011 342.029 183.32 343.007 183.76C343.191 183.842 343.452 184.023 343.789 184.327C344.12 184.625 344.5 185.019 344.924 185.499C345.77 186.459 346.767 187.74 347.858 189.238C350.037 192.231 352.567 196.057 354.973 199.832C357.379 203.607 359.657 207.324 361.335 210.099C362.174 211.486 362.862 212.637 363.34 213.442C363.58 213.844 363.766 214.159 363.893 214.374L364.038 214.619L364.075 214.682L364.084 214.697L364.086 214.701L364.087 214.702C364.087 214.702 364.087 214.703 364.518 214.449L364.087 214.703L364.334 215.122L364.76 214.887C366.439 213.959 367.332 211.84 367.799 209.408C368.273 206.941 368.339 203.985 368.222 201.16C368.105 198.329 367.803 195.604 367.531 193.589C367.395 192.58 367.266 191.748 367.171 191.168C367.154 191.062 367.138 190.964 367.123 190.876L377.151 191.371C377.525 192.914 378.34 195.187 379.352 197.737C380.456 200.515 381.808 203.656 383.12 206.607C384.432 209.559 385.705 212.324 386.65 214.351C387.122 215.365 387.513 216.194 387.785 216.77C387.921 217.058 388.028 217.282 388.101 217.435L388.104 217.442C387.547 218.582 387.368 220.178 387.432 222.036C387.501 224.044 387.859 226.438 388.416 229.057C389.529 234.296 391.45 240.495 393.512 246.422C395.574 252.352 397.783 258.024 399.475 262.212C400.321 264.307 401.038 266.031 401.544 267.232C401.797 267.832 401.997 268.302 402.134 268.621C402.202 268.781 402.255 268.904 402.291 268.986L402.331 269.08L402.341 269.104L402.344 269.11L402.345 269.111C402.345 269.111 402.345 269.112 402.804 268.912L402.345 269.112L402.36 269.146L402.379 269.177C415.709 290.529 420.289 320.008 421.524 344.207C422.14 356.297 421.921 367.048 421.547 374.777C421.36 378.641 421.135 381.748 420.957 383.889C420.867 384.96 420.79 385.788 420.735 386.349C420.707 386.629 420.685 386.842 420.67 386.985L420.664 387.045C420.659 387.088 420.655 387.121 420.653 387.146L420.653 387.148C415.906 401.4 405.905 409.335 393.522 413.234C381.1 417.145 366.286 416.989 352.018 415.021C337.758 413.053 324.089 409.282 313.98 406C308.927 404.36 304.766 402.842 301.87 401.735C300.422 401.182 299.29 400.731 298.521 400.419C298.136 400.263 297.842 400.142 297.644 400.059Z" fill="#C69C6D" stroke="white"/>
<path d="M56.3909 411.902L15.0161 413.615L21.7545 365.397L56.8372 371.745L56.3909 411.902Z" fill="#C69C6D" stroke="white"/>
<path d="M299.757 405.114L271.835 352.779L359.259 327.289L359.81 327.128L359.575 326.604L328.72 257.859C327.501 253.315 324.163 247.711 319.894 241.892C315.603 236.043 310.332 229.928 305.217 224.377C300.101 218.826 295.134 213.833 291.447 210.228C289.603 208.425 288.078 206.97 287.015 205.964C286.483 205.461 286.066 205.071 285.782 204.806C285.724 204.752 285.671 204.703 285.624 204.659C285.557 204.597 285.501 204.545 285.458 204.505L285.375 204.428L285.354 204.409L285.348 204.404L285.347 204.402C285.347 204.402 285.346 204.402 285.008 204.77L285.346 204.402L285.212 204.278L285.03 204.27L250.306 202.737C249.859 201.243 248.692 200.063 247.266 199.137C245.715 198.13 243.788 197.378 241.93 196.822C240.067 196.265 238.248 195.897 236.897 195.669C236.221 195.555 235.66 195.475 235.267 195.424C235.071 195.398 234.917 195.38 234.811 195.368C234.81 195.368 234.808 195.368 234.807 195.367C234.17 194.828 232.776 193.911 230.964 192.799C229 191.593 226.494 190.129 223.8 188.612C218.417 185.58 212.261 182.322 208.161 180.48C207.58 180.219 206.761 180.044 205.774 179.929C204.778 179.812 203.571 179.752 202.192 179.741C199.434 179.717 195.953 179.885 192.019 180.189C184.148 180.797 174.427 181.951 164.968 183.218C155.508 184.486 146.303 185.868 139.464 186.933C136.045 187.466 133.216 187.92 131.242 188.24C130.255 188.4 129.482 188.527 128.956 188.614C128.692 188.657 128.491 188.691 128.355 188.713L128.201 188.739L128.162 188.745L128.152 188.747L128.15 188.747C128.149 188.747 128.149 188.747 128.231 189.241L128.149 188.747L128.032 188.767L127.937 188.836L119.276 195.143C92.3917 201.318 71.859 220.509 58.0621 238.11C51.1506 246.927 45.9177 255.36 42.4124 261.589C40.6596 264.704 39.3382 267.268 38.4544 269.055C38.0125 269.949 37.68 270.648 37.4576 271.125C37.3501 271.356 37.2683 271.534 37.2124 271.657C37.0252 271.756 36.8821 271.914 36.7812 272.046C36.6046 272.278 36.4359 272.592 36.272 272.961C35.942 273.703 35.5892 274.767 35.2176 276.089C34.4727 278.738 33.6318 282.503 32.7381 287C30.95 295.998 28.9421 307.974 27.06 319.939C25.1777 331.905 23.4204 343.865 22.1337 352.833C21.4904 357.318 20.9646 361.054 20.5997 363.67C20.4173 364.978 20.2751 366.005 20.1784 366.706C20.1301 367.056 20.0932 367.325 20.0683 367.506L20.0402 367.711L20.0331 367.763L20.0313 367.776L20.0309 367.779C20.0308 367.78 20.0307 367.78 20.5261 367.848L20.0307 367.78L19.968 368.24L20.4213 368.337L51.391 374.976L55.9632 403.471L56.0302 403.889L56.4529 403.892L299.312 405.85L300.153 405.856L299.757 405.114Z" fill="#293241" stroke="white"/>
<path d="M142.642 187.213C142.453 187.242 142.267 187.271 142.084 187.299C150.485 183.969 154.777 179.033 157.153 173.97C158.617 170.85 159.342 167.706 159.871 164.92C159.992 164.281 160.102 163.665 160.208 163.074C160.57 161.056 160.879 159.332 161.387 157.997C161.751 157.04 161.969 155.734 162.086 154.212C162.203 152.683 162.22 150.902 162.164 148.978C162.052 145.129 161.648 140.675 161.16 136.454C160.671 132.232 160.099 128.233 159.648 125.291C159.423 123.819 159.228 122.611 159.089 121.771C159.02 121.351 158.965 121.023 158.927 120.8C158.908 120.688 158.893 120.602 158.883 120.545L158.874 120.49L158.36 108.092C161.925 104.303 168.794 100.1 177.187 95.9093C185.671 91.6731 195.646 87.4814 205.182 83.7737C214.715 80.0666 223.802 76.8464 230.505 74.5528C233.857 73.4061 236.612 72.4912 238.529 71.863C239.488 71.549 240.237 71.3066 240.746 71.1428C240.99 71.0643 241.179 71.0038 241.31 70.9622C241.387 71.0066 241.484 71.0616 241.602 71.1253C241.92 71.2969 242.385 71.5312 242.981 71.7872C244.173 72.2991 245.893 72.8994 248.018 73.2591C252.275 73.9795 258.143 73.7309 264.609 69.8961C270.763 66.2463 278.135 67.3752 284.059 69.4897C287.01 70.5427 289.571 71.8296 291.395 72.8542C292.306 73.3661 293.033 73.8117 293.53 74.1286C293.778 74.287 293.969 74.4132 294.098 74.4993C294.106 74.505 294.114 74.5105 294.122 74.5159L296.662 88.2166L296.684 88.3365L296.759 88.4327C301.943 95.0896 301.899 100.672 300.618 104.571C299.973 106.535 299.007 108.091 298.201 109.157C297.798 109.69 297.437 110.098 297.178 110.371C297.049 110.508 296.945 110.61 296.875 110.678C296.856 110.697 296.839 110.713 296.824 110.726C296.813 110.737 296.804 110.746 296.796 110.753L296.777 110.77L296.773 110.773L296.773 110.774L296.773 110.774L296.499 111.017L296.649 111.352L297.106 111.147C296.649 111.352 296.649 111.352 296.65 111.352L296.65 111.353L296.651 111.356L296.657 111.369L296.681 111.422L296.773 111.628C296.853 111.809 296.972 112.075 297.122 112.416C297.424 113.099 297.855 114.081 298.373 115.278C299.41 117.672 300.794 120.926 302.186 124.367C303.578 127.808 304.975 131.431 306.039 134.564C307.112 137.721 307.821 140.313 307.88 141.728C307.933 143.017 307.286 144.082 306.182 144.98C305.07 145.884 303.539 146.579 301.96 147.101C300.386 147.622 298.8 147.96 297.603 148.168C297.006 148.272 296.508 148.343 296.16 148.388C295.986 148.41 295.85 148.426 295.758 148.437C295.712 148.442 295.677 148.445 295.653 148.448L295.627 148.451L295.621 148.451L295.62 148.451L295.62 148.451L295.149 148.497L295.168 148.97L295.664 160.94L288.106 165.118L287.611 165.392L287.944 165.85L291.948 171.348L286.478 177.29L286.297 177.487L286.361 177.747L286.846 177.628C286.361 177.747 286.361 177.747 286.361 177.747L286.361 177.747L286.361 177.749L286.362 177.754L286.368 177.776L286.389 177.861C286.407 177.935 286.434 178.043 286.469 178.183C286.54 178.461 286.643 178.861 286.773 179.351C287.033 180.329 287.403 181.665 287.839 183.093C288.275 184.52 288.78 186.046 289.311 187.401C289.838 188.745 290.406 189.962 290.976 190.746C291.346 191.254 291.333 192.096 290.893 193.263C290.465 194.396 289.695 195.67 288.838 196.882C287.986 198.089 287.066 199.209 286.357 200.029C286.003 200.438 285.702 200.771 285.491 201.002C285.419 201.081 285.358 201.147 285.308 201.201L249.796 200.681L249.605 200.678L249.46 200.804L244.935 204.742C241.578 202.259 233.571 197.5 224.545 193.03C215.217 188.409 204.721 184.056 197.084 182.855C193.247 182.251 187.446 182.306 180.94 182.716C174.421 183.127 167.155 183.898 160.366 184.742C153.577 185.587 147.261 186.505 142.642 187.213Z" fill="#C69C6D" stroke="white"/>
<mask id="path-7-inside-1" fill="white">
<path d="M154.951 61.0257C158.452 48.8706 187.268 19.6538 193.18 17.4073C199.092 15.1609 256.795 6.76725 260.957 10.5984L285.839 55.6078L339.793 53.3744C339.793 53.3744 349.447 68.9885 330.918 80.7649C330.918 80.7649 310.391 92.624 298.319 91.122C298.319 91.122 299.573 73.0547 283.545 72.7173C267.517 72.3799 244.578 74.3303 244.578 74.3303C244.578 74.3303 174.301 93.2531 159.018 110.9"/>
</mask>
<path d="M154.951 61.0257C158.452 48.8706 187.268 19.6538 193.18 17.4073C199.092 15.1609 256.795 6.76725 260.957 10.5984L285.839 55.6078L339.793 53.3744C339.793 53.3744 349.447 68.9885 330.918 80.7649C330.918 80.7649 310.391 92.624 298.319 91.122C298.319 91.122 299.573 73.0547 283.545 72.7173C267.517 72.3799 244.578 74.3303 244.578 74.3303C244.578 74.3303 174.301 93.2531 159.018 110.9" fill="#293241"/>
<path d="M260.957 10.5984L261.832 10.1146L261.753 9.97255L261.634 9.86265L260.957 10.5984ZM285.839 55.6078L284.964 56.0916L285.263 56.6325L285.881 56.6069L285.839 55.6078ZM339.793 53.3744L340.644 52.8486L340.336 52.3511L339.752 52.3753L339.793 53.3744ZM330.918 80.7649L331.419 81.6308L331.437 81.6202L331.455 81.6089L330.918 80.7649ZM298.319 91.122L297.321 91.0528L297.256 91.9975L298.195 92.1144L298.319 91.122ZM244.578 74.3303L244.494 73.3339L244.405 73.3415L244.318 73.3647L244.578 74.3303ZM155.912 61.3025C156.735 58.4473 159.097 54.4647 162.377 49.9895C165.634 45.5447 169.723 40.7122 173.897 36.178C178.07 31.6446 182.314 27.4241 185.876 24.2027C187.657 22.5914 189.259 21.2381 190.59 20.2231C191.948 19.1873 192.945 18.5666 193.535 18.3421L192.825 16.4725C191.938 16.8097 190.74 17.5935 189.377 18.6328C187.987 19.6931 186.34 21.0859 184.534 22.7195C180.921 25.9879 176.633 30.2525 172.426 34.8235C168.219 39.3938 164.078 44.2849 160.763 48.8071C157.471 53.2989 154.918 57.5266 153.991 60.749L155.912 61.3025ZM193.535 18.3421C194.185 18.0951 195.653 17.7324 197.818 17.2926C199.954 16.8589 202.696 16.3639 205.842 15.8436C212.133 14.8031 220.016 13.665 227.845 12.7165C235.677 11.7676 243.437 11.0106 249.489 10.729C252.518 10.5881 255.093 10.5676 257.025 10.6966C257.993 10.7613 258.772 10.8618 259.353 10.9939C259.975 11.1354 260.223 11.2821 260.279 11.3341L261.634 9.86265C261.17 9.43582 260.479 9.19905 259.796 9.04372C259.072 8.87902 258.178 8.76919 257.159 8.70109C255.116 8.56465 252.454 8.5889 249.396 8.7312C243.273 9.01611 235.457 9.77962 227.604 10.731C219.748 11.6829 211.837 12.825 205.516 13.8704C202.356 14.393 199.588 14.8924 197.42 15.3327C195.282 15.7669 193.653 16.1579 192.825 16.4725L193.535 18.3421ZM260.081 11.0822L284.964 56.0916L286.715 55.124L261.832 10.1146L260.081 11.0822ZM285.881 56.6069L339.835 54.3736L339.752 52.3753L285.798 54.6086L285.881 56.6069ZM339.793 53.3744C338.943 53.9003 338.942 53.8999 338.942 53.8995C338.942 53.8995 338.942 53.8991 338.942 53.899C338.942 53.8989 338.942 53.8989 338.942 53.8992C338.942 53.8997 338.943 53.9012 338.945 53.9036C338.948 53.9084 338.953 53.9169 338.96 53.929C338.974 53.9532 338.997 53.9918 339.026 54.0443C339.086 54.1492 339.173 54.3094 339.28 54.52C339.493 54.9416 339.782 55.5635 340.075 56.3481C340.663 57.9206 341.258 60.1262 341.304 62.6717C341.395 67.6899 339.36 74.2149 330.382 79.921L331.455 81.6089C341.006 75.5385 343.408 68.3683 343.304 62.6354C343.253 59.8053 342.593 57.3713 341.949 55.6482C341.626 54.785 341.306 54.095 341.064 53.6167C340.943 53.3774 340.841 53.1906 340.768 53.0611C340.731 52.9963 340.702 52.9458 340.681 52.9102C340.67 52.8924 340.662 52.8783 340.656 52.868C340.653 52.8629 340.65 52.8587 340.648 52.8554C340.647 52.8538 340.646 52.8524 340.645 52.8513C340.645 52.8507 340.645 52.85 340.644 52.8497C340.644 52.8491 340.644 52.8486 339.793 53.3744ZM330.918 80.7649C330.418 79.899 330.418 79.899 330.418 79.899C330.418 79.8991 330.418 79.8991 330.418 79.8993C330.417 79.8995 330.417 79.9 330.415 79.9006C330.413 79.9018 330.41 79.9038 330.405 79.9064C330.396 79.9117 330.382 79.9198 330.363 79.9305C330.325 79.9521 330.269 79.9844 330.194 80.0268C330.043 80.1116 329.82 80.2364 329.531 80.3951C328.953 80.7127 328.112 81.1658 327.065 81.7054C324.968 82.7852 322.05 84.2085 318.76 85.5841C315.468 86.9609 311.821 88.2827 308.264 89.1669C304.695 90.0543 301.286 90.4834 298.442 90.1297L298.195 92.1144C301.388 92.5117 305.072 92.0216 308.747 91.1079C312.435 90.1909 316.183 88.8296 319.532 87.4293C322.883 86.0279 325.851 84.5803 327.98 83.4835C329.046 82.9347 329.903 82.4731 330.494 82.148C330.79 81.9854 331.02 81.8569 331.176 81.7687C331.255 81.7245 331.314 81.6905 331.355 81.6673C331.375 81.6556 331.391 81.6467 331.402 81.6406C331.407 81.6376 331.411 81.6352 331.414 81.6336C331.415 81.6328 331.416 81.6321 331.417 81.6316C331.418 81.6314 331.418 81.6312 331.418 81.6311C331.418 81.6309 331.419 81.6308 330.918 80.7649ZM298.319 91.122C299.316 91.1913 299.317 91.1908 299.317 91.1902C299.317 91.1899 299.317 91.1893 299.317 91.1887C299.317 91.1876 299.317 91.1862 299.317 91.1845C299.317 91.1812 299.317 91.1767 299.318 91.1712C299.318 91.1601 299.319 91.1448 299.32 91.1252C299.323 91.0861 299.325 91.0303 299.328 90.9588C299.334 90.816 299.34 90.6104 299.341 90.3511C299.345 89.8327 299.33 89.0973 299.261 88.2158C299.124 86.4584 298.767 84.0918 297.88 81.6986C296.992 79.3044 295.559 76.845 293.247 74.9603C290.922 73.0651 287.774 71.8061 283.566 71.7175L283.524 73.7171C287.329 73.7972 290.036 74.9232 291.983 76.5105C293.944 78.1084 295.202 80.2291 296.005 82.3938C296.808 84.5596 297.139 86.7309 297.267 88.3717C297.331 89.1893 297.344 89.868 297.341 90.339C297.34 90.5744 297.335 90.7573 297.33 90.8793C297.327 90.9403 297.325 90.9859 297.324 91.0152C297.323 91.0299 297.322 91.0404 297.322 91.0467C297.321 91.0499 297.321 91.052 297.321 91.053C297.321 91.0535 297.321 91.0538 297.321 91.0537C297.321 91.0537 297.321 91.0535 297.321 91.0535C297.321 91.0532 297.321 91.0528 298.319 91.122ZM283.566 71.7175C275.512 71.548 265.739 71.9531 257.994 72.3989C254.118 72.622 250.744 72.8557 248.339 73.0335C247.137 73.1225 246.176 73.1975 245.516 73.2503C245.185 73.2767 244.93 73.2976 244.758 73.3119C244.671 73.319 244.605 73.3245 244.561 73.3282C244.539 73.3301 244.522 73.3315 244.511 73.3324C244.505 73.3329 244.501 73.3333 244.498 73.3335C244.497 73.3336 244.496 73.3337 244.495 73.3338C244.495 73.3338 244.494 73.3338 244.494 73.3339C244.494 73.3339 244.494 73.3339 244.578 74.3303C244.663 75.3267 244.663 75.3267 244.663 75.3267C244.663 75.3267 244.664 75.3267 244.664 75.3266C244.665 75.3266 244.666 75.3265 244.667 75.3264C244.67 75.3261 244.674 75.3258 244.679 75.3253C244.69 75.3244 244.707 75.323 244.728 75.3212C244.772 75.3176 244.837 75.3121 244.922 75.3051C245.093 75.2909 245.347 75.2702 245.675 75.244C246.332 75.1914 247.289 75.1167 248.487 75.0281C250.884 74.8508 254.246 74.618 258.109 74.3956C265.84 73.9506 275.55 73.5492 283.524 73.7171L283.566 71.7175ZM244.578 74.3303C244.318 73.3647 244.318 73.3648 244.317 73.365C244.317 73.3651 244.316 73.3653 244.315 73.3656C244.313 73.3663 244.309 73.3671 244.305 73.3683C244.296 73.3707 244.283 73.3742 244.266 73.3788C244.232 73.3881 244.181 73.402 244.114 73.4203C243.979 73.4569 243.78 73.5113 243.52 73.5831C242.999 73.7265 242.235 73.939 241.257 74.2156C239.301 74.7687 236.491 75.5783 233.071 76.6049C226.233 78.6579 216.954 81.5799 207.194 85.0555C197.437 88.5299 187.181 92.5638 178.396 96.8422C169.65 101.102 162.227 105.667 158.262 110.246L159.774 111.555C163.45 107.31 170.543 102.892 179.272 98.6403C187.963 94.4075 198.142 90.4019 207.865 86.9396C217.584 83.4786 226.83 80.5671 233.646 78.5205C237.054 77.4973 239.854 76.6907 241.801 76.1401C242.774 75.8648 243.535 75.6535 244.051 75.5112C244.309 75.44 244.507 75.3861 244.639 75.35C244.705 75.3319 244.755 75.3184 244.789 75.3093C244.805 75.3048 244.818 75.3014 244.826 75.2992C244.83 75.2981 244.834 75.2972 244.836 75.2967C244.837 75.2964 244.837 75.2962 244.838 75.2961C244.838 75.296 244.838 75.2959 244.578 74.3303Z" fill="white" mask="url(#path-7-inside-1)"/>
<path d="M365.711 183.345C364.396 178.027 367.798 174.005 371.057 171.954L377.006 190.649L367.033 190.427C366.983 189.253 366.945 188.641 366.793 187.831C366.673 187.195 366.481 186.429 366.158 185.139C366.031 184.631 365.883 184.04 365.711 183.345Z" fill="#C69C6D" stroke="white"/>
<path d="M96.7212 280.041C96.4909 280.257 96.2718 280.41 96.0637 280.498C95.8717 280.578 95.6569 280.6 95.4193 280.566C95.1698 280.531 94.9279 280.407 94.6936 280.196C94.4753 279.975 94.2039 279.729 93.8794 279.458C93.5548 279.186 93.1506 278.927 92.6668 278.68C92.1991 278.424 91.597 278.243 90.8604 278.138C90.1952 278.043 89.5839 278.039 89.0265 278.125C88.4732 278.2 87.9742 278.348 87.5295 278.568C87.0966 278.791 86.726 279.082 86.4177 279.44C86.1135 279.788 85.8779 280.186 85.7109 280.636C85.4978 281.21 85.4866 281.712 85.6772 282.142C85.8797 282.574 86.21 282.964 86.6681 283.314C87.1262 283.664 87.6719 283.997 88.3053 284.312C88.9387 284.628 89.5837 284.963 90.2402 285.317C90.9009 285.66 91.527 286.046 92.1187 286.474C92.7145 286.891 93.1997 287.387 93.5742 287.961C93.9529 288.525 94.177 289.185 94.2465 289.941C94.3279 290.699 94.1806 291.584 93.8047 292.596C93.3953 293.699 92.8091 294.705 92.046 295.615C91.2989 296.515 90.4057 297.27 89.3662 297.88C88.3428 298.48 87.2014 298.909 85.9421 299.167C84.6869 299.415 83.3466 299.436 81.921 299.233C81.1013 299.116 80.3228 298.922 79.5853 298.65C78.8437 298.39 78.1569 298.067 77.5248 297.681C76.9045 297.296 76.3468 296.861 75.8515 296.376C75.3562 295.89 74.9489 295.37 74.6295 294.815L76.8455 292.839C77.0228 292.699 77.2252 292.591 77.4529 292.517C77.6847 292.432 77.9076 292.405 78.1214 292.435C78.4184 292.478 78.6953 292.641 78.9521 292.927C79.213 293.201 79.5289 293.513 79.8996 293.862C80.2704 294.211 80.7267 294.549 81.2686 294.875C81.8266 295.192 82.551 295.413 83.442 295.541C84.8081 295.736 85.9781 295.583 86.9521 295.083C87.9302 294.571 88.6323 293.741 89.0584 292.594C89.2964 291.952 89.3184 291.405 89.1243 290.951C88.942 290.498 88.6219 290.097 88.1638 289.747C87.7099 289.386 87.162 289.059 86.5203 288.766C85.8785 288.473 85.2311 288.161 84.5782 287.831C83.9252 287.501 83.3008 287.127 82.705 286.711C82.1092 286.294 81.6261 285.792 81.2557 285.206C80.8853 284.62 80.6678 283.926 80.6032 283.123C80.5546 282.311 80.737 281.348 81.1505 280.234C81.4805 279.345 81.9863 278.505 82.6678 277.714C83.3612 276.925 84.1854 276.255 85.1405 275.704C86.0955 275.153 87.1688 274.756 88.3604 274.511C89.5519 274.267 90.8249 274.241 92.1791 274.435C93.6997 274.652 95.0179 275.077 96.1338 275.711C97.2497 276.344 98.1087 277.13 98.7108 278.069L96.7212 280.041ZM107.678 280.736L105.166 287.503L114.182 288.791L112.885 292.284L103.869 290.996L101.306 297.897L112.746 299.531L111.399 303.159L95.1478 300.838L104.208 276.437L120.459 278.759L119.118 282.37L107.678 280.736ZM134.921 300.46C135.182 300.497 135.378 300.626 135.509 300.846L136.678 303.057C135.177 304.133 133.539 304.889 131.764 305.322C130.002 305.757 128.051 305.822 125.913 305.517C124 305.244 122.393 304.688 121.09 303.851C119.799 303.015 118.818 301.968 118.146 300.711C117.474 299.455 117.132 298.02 117.117 296.406C117.115 294.795 117.45 293.084 118.123 291.273C118.804 289.439 119.735 287.807 120.917 286.376C122.102 284.935 123.458 283.742 124.984 282.799C126.522 281.858 128.182 281.195 129.964 280.81C131.75 280.413 133.587 280.35 135.476 280.62C137.353 280.888 138.907 281.418 140.139 282.21C141.383 283.004 142.341 283.946 143.012 285.037L140.625 286.917C140.48 287.039 140.311 287.139 140.119 287.218C139.939 287.299 139.718 287.321 139.457 287.283C139.278 287.258 139.111 287.187 138.954 287.069C138.802 286.941 138.638 286.793 138.462 286.626C138.291 286.448 138.088 286.253 137.854 286.042C137.619 285.83 137.331 285.629 136.989 285.438C136.652 285.236 136.238 285.053 135.749 284.888C135.276 284.714 134.7 284.578 134.023 284.482C132.871 284.317 131.741 284.363 130.632 284.619C129.54 284.866 128.511 285.311 127.547 285.955C126.586 286.588 125.717 287.412 124.94 288.426C124.168 289.429 123.529 290.611 123.023 291.973C122.514 293.345 122.262 294.594 122.269 295.721C122.288 296.849 122.513 297.829 122.942 298.66C123.371 299.491 123.988 300.172 124.792 300.701C125.601 301.22 126.551 301.557 127.644 301.713C128.298 301.806 128.898 301.856 129.446 301.864C130.006 301.872 130.532 301.835 131.026 301.752C131.532 301.67 132.022 301.545 132.498 301.376C132.99 301.197 133.494 300.967 134.011 300.686C134.168 300.601 134.322 300.54 134.473 300.503C134.629 300.454 134.778 300.44 134.921 300.46ZM150.382 304.872C151.308 305.004 152.188 304.976 153.022 304.787C153.867 304.6 154.637 304.277 155.332 303.82C156.027 303.363 156.646 302.776 157.187 302.059C157.74 301.345 158.19 300.52 158.536 299.587L163.962 284.973L168.756 285.658L163.33 300.271C162.791 301.723 162.042 303.031 161.084 304.197C160.142 305.354 159.04 306.316 157.779 307.084C156.535 307.842 155.159 308.38 153.652 308.698C152.15 309.004 150.573 309.04 148.922 308.804C147.259 308.566 145.86 308.106 144.725 307.422C143.594 306.728 142.731 305.87 142.134 304.849C141.554 303.818 141.242 302.654 141.198 301.357C141.17 300.05 141.426 298.671 141.965 297.219L147.39 282.606L152.184 283.291L146.764 297.887C146.418 298.821 146.235 299.683 146.217 300.474C146.21 301.267 146.356 301.969 146.654 302.58C146.969 303.182 147.434 303.681 148.05 304.077C148.678 304.475 149.455 304.74 150.382 304.872ZM177.638 299.152C178.541 299.281 179.364 299.286 180.109 299.168C180.866 299.051 181.527 298.837 182.092 298.527C182.674 298.207 183.167 297.804 183.573 297.317C183.979 296.83 184.297 296.277 184.527 295.659C184.986 294.421 184.906 293.409 184.285 292.621C183.676 291.835 182.487 291.316 180.717 291.063L177.652 290.625L174.644 298.725L177.638 299.152ZM185.22 313.705L180.889 313.086C180.07 312.969 179.589 312.58 179.446 311.92L176.93 303.334C176.836 303.012 176.688 302.772 176.484 302.613C176.293 302.455 175.959 302.342 175.484 302.274L173.435 301.981L169.895 311.515L165.102 310.831L174.161 286.43L182.02 287.553C183.766 287.802 185.198 288.191 186.316 288.717C187.45 289.235 188.3 289.86 188.866 290.592C189.444 291.326 189.762 292.154 189.821 293.074C189.884 293.983 189.723 294.956 189.339 295.99C189.034 296.812 188.615 297.569 188.082 298.263C187.561 298.959 186.946 299.57 186.238 300.097C185.541 300.625 184.753 301.063 183.873 301.411C183.005 301.761 182.072 302.001 181.073 302.131C181.319 302.344 181.529 302.587 181.703 302.86C181.881 303.123 182.018 303.427 182.115 303.772L185.22 313.705ZM192.813 314.789L188.002 314.102L197.062 289.702L201.873 290.389L192.813 314.789ZM224.255 297.513L216.485 296.403L208.81 317.074L204.017 316.39L211.692 295.719L203.923 294.609L205.308 290.88L225.639 293.784L224.255 297.513ZM234.525 310.797L231.017 320.247L226.241 319.564L229.75 310.115L225.91 293.823L230.134 294.426C230.549 294.485 230.84 294.628 231.007 294.853C231.186 295.08 231.304 295.351 231.361 295.667L233.039 304.49C233.133 305.013 233.201 305.502 233.245 305.958C233.3 306.416 233.331 306.871 233.339 307.322C233.652 306.917 233.989 306.515 234.349 306.116C234.71 305.718 235.111 305.295 235.552 304.849L243.264 297.368C243.487 297.139 243.769 296.936 244.109 296.76C244.45 296.584 244.822 296.524 245.226 296.582L249.467 297.188L234.525 310.797Z" fill="white"/>
</g>
<defs>
<clipPath id="clip0">
<rect width="412.17" height="415.93" fill="white" transform="translate(0 17.0467) rotate(-2.37033)"/>
</clipPath>
</defs>
</svg>
